<svg width="869" height="732" viewBox="0 0 869 732" fill="none" xmlns="http://www.w3.org/2000/svg">
<path d="M38.2136 70.0742L37.2225 74.5301H21.6397L14.2062 109.462C13.3986 113.093 12.9948 116.1 12.9948 118.484C12.9948 123.581 15.3075 126.13 19.9328 126.13C22.4289 126.13 25.2188 125.653 28.3023 124.7V129.431C24.5947 130.458 21.4745 130.971 18.9416 130.971C15.3075 130.971 12.4993 129.981 10.517 128.001C8.53474 125.984 7.54361 123.068 7.54361 119.254C7.54361 116.577 8.07588 112.799 9.14043 107.922L16.2435 74.5301H6.2221L6.99298 70.8444L17.1245 69.9092L22.4656 55.9915H25.4941L22.4656 70.0742H38.2136Z" fill="#EA5148"/>
<path d="M75.9867 129.871L84.1911 91.8035C84.962 88.4295 85.3474 85.5689 85.3474 83.2218C85.3474 80.2879 84.5398 77.9958 82.9247 76.3455C81.3462 74.6952 78.8867 73.87 75.5462 73.87C71.4349 73.87 67.5621 75.0986 63.928 77.5557C60.3305 80.0129 57.2837 83.4602 54.7875 87.8977C52.3281 92.3353 50.4376 97.5796 49.1161 103.631L43.4997 129.871H38.1035L56.3844 44.2742H61.6704L56.935 66.8836C55.3198 74.2184 54.1084 79.3344 53.3008 82.2316H53.6312C56.4945 78.0875 59.9084 74.8785 63.8729 72.6047C67.8741 70.2943 72.0956 69.1391 76.5374 69.1391C81.0892 69.1391 84.6133 70.331 87.1094 72.7148C89.6056 75.0986 90.8537 78.4542 90.8537 82.7817C90.8537 85.3489 90.4132 88.6862 89.5322 92.7937L81.3829 129.871H75.9867Z" fill="#EA5148"/>
<path d="M122.735 130.971C116.385 130.971 111.429 128.972 107.868 124.975C104.307 120.941 102.527 115.33 102.527 108.142C102.527 101.504 103.83 95.1408 106.437 89.053C109.043 82.9651 112.622 78.1242 117.174 74.5301C121.762 70.9361 126.81 69.1391 132.316 69.1391C136.501 69.1391 139.841 70.2576 142.337 72.4947C144.834 74.7318 146.082 77.7758 146.082 81.6265C146.082 88.2645 143.072 93.3255 137.051 96.8095C131.068 100.294 122.166 102.036 110.346 102.036H108.529C108.309 103.649 108.199 105.446 108.199 107.427C108.199 113.478 109.557 118.099 112.273 121.289C114.99 124.443 118.899 126.02 124.002 126.02C128.847 126.02 133.913 124.682 139.199 122.004V127.175C134.06 129.706 128.572 130.971 122.735 130.971ZM131.655 73.87C126.846 73.87 122.368 75.9971 118.22 80.2512C114.109 84.4687 111.135 90.1165 109.3 97.1946H111.998C130.976 97.1946 140.465 92.2436 140.465 82.3417C140.465 79.8845 139.658 77.8674 138.043 76.2905C136.464 74.6768 134.335 73.87 131.655 73.87Z" fill="#EA5148"/>
<path d="M226.54 102.161C226.54 111.731 223.198 119.021 216.515 124.028C209.887 129.036 199.945 131.54 186.69 131.54C179.895 131.54 174.102 131.067 169.313 130.121C164.523 129.231 160.039 127.896 155.862 126.115V105.082C160.596 107.308 165.915 109.172 171.819 110.674C177.778 112.176 183.014 112.928 187.525 112.928C196.771 112.928 201.393 110.257 201.393 104.915C201.393 102.912 200.781 101.298 199.555 100.074C198.33 98.7943 196.214 97.3754 193.206 95.8174C190.198 94.2037 186.188 92.3397 181.176 90.2253C173.991 87.2205 168.7 84.4384 165.302 81.8788C161.961 79.3192 159.51 76.398 157.951 73.115C156.447 69.7764 155.695 65.6867 155.695 60.8457C155.695 52.5549 158.897 46.1559 165.302 41.6488C171.763 37.0861 180.897 34.8048 192.705 34.8048C203.955 34.8048 214.9 37.253 225.537 42.1496L217.851 60.5119C213.173 58.5087 208.801 56.8672 204.735 55.5874C200.669 54.3077 196.52 53.6678 192.287 53.6678C184.768 53.6678 181.009 55.6987 181.009 59.7607C181.009 62.042 182.206 64.0174 184.601 65.6867C187.052 67.356 192.371 69.8321 200.558 73.115C207.854 76.0641 213.201 78.8184 216.598 81.378C219.996 83.9376 222.502 86.8867 224.117 90.2253C225.732 93.5639 226.54 97.5423 226.54 102.161Z" fill="#EA5148"/>
<path d="M332.64 129.871H307.16V75.3686C307.16 61.9029 302.147 55.1701 292.122 55.1701C284.993 55.1701 279.841 57.5906 276.666 62.4315C273.492 67.2725 271.904 75.1182 271.904 85.9686V129.871H246.423V0H271.904V26.4583C271.904 28.5171 271.709 33.358 271.319 40.9811L270.735 48.493H272.071C277.752 39.3675 286.775 34.8048 299.139 34.8048C310.111 34.8048 318.438 37.7538 324.119 43.652C329.8 49.5502 332.64 58.0079 332.64 69.0252V129.871Z" fill="#EA5148"/>
<path d="M379.174 83.0473C379.174 92.2841 380.678 99.2673 383.686 103.997C386.749 108.727 391.706 111.091 398.556 111.091C405.351 111.091 410.225 108.754 413.176 104.08C416.184 99.3507 417.688 92.3397 417.688 83.0473C417.688 73.8106 416.184 66.883 413.176 62.2646C410.169 57.6462 405.24 55.3371 398.389 55.3371C391.594 55.3371 386.693 57.6462 383.686 62.2646C380.678 66.8273 379.174 73.7549 379.174 83.0473ZM443.753 83.0473C443.753 98.2379 439.743 110.118 431.723 118.687C423.703 127.256 412.536 131.54 398.222 131.54C389.255 131.54 381.346 129.593 374.496 125.698C367.645 121.747 362.382 116.099 358.706 108.754C355.03 101.41 353.192 92.8405 353.192 83.0473C353.192 67.8011 357.174 55.9491 365.139 47.4914C373.103 39.0336 384.298 34.8048 398.723 34.8048C407.69 34.8048 415.599 36.7523 422.45 40.6473C429.3 44.5423 434.564 50.1344 438.24 57.4237C441.915 64.7129 443.753 73.2541 443.753 83.0473Z" fill="#EA5148"/>
<path d="M516.938 34.8048C520.391 34.8048 523.259 35.0551 525.543 35.5559L523.621 59.4268C521.56 58.8704 519.054 58.5922 516.102 58.5922C507.971 58.5922 501.621 60.6788 497.054 64.852C492.543 69.0252 490.287 74.8678 490.287 82.3796V129.871H464.806V36.5575H484.105L487.864 52.2489H489.118C492.014 47.0184 495.913 42.8174 500.814 39.6457C505.771 36.4184 511.145 34.8048 516.938 34.8048Z" fill="#EA5148"/>
<path d="M581.851 111.258C586.307 111.258 591.654 110.285 597.891 108.337V127.284C591.542 130.121 583.745 131.54 574.499 131.54C564.307 131.54 556.872 128.981 552.193 123.862C547.57 118.687 545.259 110.952 545.259 100.658V55.6709H533.062V44.904L547.097 36.3906L554.449 16.6929H570.74V36.5575H596.889V55.6709H570.74V100.658C570.74 104.275 571.742 106.946 573.747 108.671C575.808 110.396 578.509 111.258 581.851 111.258Z" fill="#EA5148"/>
<path d="M655.537 52.9166C650.134 52.9166 645.901 54.6415 642.838 58.0914C639.775 61.4856 638.02 66.3266 637.575 72.6142H673.331C673.22 66.3266 671.577 61.4856 668.402 58.0914C665.228 54.6415 660.939 52.9166 655.537 52.9166ZM659.129 131.54C644.091 131.54 632.339 127.395 623.874 119.104C615.408 110.813 611.175 99.0725 611.175 83.882C611.175 68.2462 615.074 56.1717 622.871 47.6583C630.724 39.0893 641.557 34.8048 655.37 34.8048C668.569 34.8048 678.845 38.5607 686.197 46.0725C693.549 53.5843 697.225 63.9617 697.225 77.2048V89.5575H636.99C637.268 96.7911 639.413 102.439 643.423 106.501C647.433 110.563 653.058 112.594 660.299 112.594C665.924 112.594 671.243 112.01 676.255 110.841C681.268 109.673 686.503 107.808 691.962 105.249V124.947C687.506 127.172 682.744 128.814 677.676 129.871C672.607 130.984 666.425 131.54 659.129 131.54Z" fill="#EA5148"/>
<path d="M783.108 102.161C783.108 111.731 779.766 119.021 773.082 124.028C766.455 129.036 756.513 131.54 743.257 131.54C736.463 131.54 730.67 131.067 725.88 130.121C721.09 129.231 716.607 127.896 712.43 126.115V105.082C717.164 107.308 722.483 109.172 728.387 110.674C734.346 112.176 739.581 112.928 744.093 112.928C753.338 112.928 757.961 110.257 757.961 104.915C757.961 102.912 757.348 101.298 756.123 100.074C754.898 98.7943 752.781 97.3754 749.774 95.8174C746.766 94.2037 742.756 92.3397 737.744 90.2253C730.559 87.2205 725.268 84.4384 721.87 81.8788C718.529 79.3192 716.078 76.398 714.518 73.115C713.015 69.7764 712.263 65.6867 712.263 60.8457C712.263 52.5549 715.465 46.1559 721.87 41.6488C728.331 37.0861 737.465 34.8048 749.273 34.8048C760.523 34.8048 771.467 37.253 782.105 42.1496L774.419 60.5119C769.741 58.5087 765.369 56.8672 761.303 55.5874C757.237 54.3077 753.088 53.6678 748.855 53.6678C741.336 53.6678 737.576 55.6987 737.576 59.7607C737.576 62.042 738.774 64.0174 741.169 65.6867C743.619 67.356 748.938 69.8321 757.126 73.115C764.422 76.0641 769.769 78.8184 773.166 81.378C776.563 83.9376 779.07 86.8867 780.685 90.2253C782.3 93.5639 783.108 97.5423 783.108 102.161Z" fill="#EA5148"/>
<path d="M842.34 111.258C846.796 111.258 852.143 110.285 858.381 108.337V127.284C852.031 130.121 844.234 131.54 834.988 131.54C824.796 131.54 817.361 128.981 812.682 123.862C808.059 118.687 805.748 110.952 805.748 100.658V55.6709H793.551V44.904L807.586 36.3906L814.938 16.6929H831.229V36.5575H857.378V55.6709H831.229V100.658C831.229 104.275 832.231 106.946 834.236 108.671C836.297 110.396 838.998 111.258 842.34 111.258Z" fill="#EA5148"/>
<path d="M47.3332 300.704C35.239 300.704 25.7232 296.012 18.7859 286.628C11.91 277.244 8.47208 264.241 8.47208 247.62C8.47208 230.753 11.9714 217.627 18.9701 208.243C26.0302 198.798 35.7301 194.075 48.0699 194.075C61.0236 194.075 70.9077 199.105 77.7222 209.163H78.643C77.231 201.497 76.525 194.658 76.525 188.647V155.711H104.704V298.864H83.1553L77.7222 285.524H76.525C70.1403 295.644 60.4096 300.704 47.3332 300.704ZM57.1866 278.348C64.3694 278.348 69.6184 276.263 72.9336 272.092C76.3102 267.921 78.1519 260.837 78.4589 250.84V247.804C78.4589 236.764 76.7399 228.851 73.3019 224.067C69.9254 219.283 64.4001 216.891 56.7261 216.891C50.4642 216.891 45.5835 219.559 42.0842 224.895C38.6462 230.17 36.9272 237.868 36.9272 247.988C36.9272 258.108 38.6769 265.713 42.1762 270.804C45.6756 275.833 50.679 278.348 57.1866 278.348Z" fill="#EA5148"/>
<path d="M129.111 169.419C129.111 160.28 134.206 155.711 144.397 155.711C154.589 155.711 159.684 160.28 159.684 169.419C159.684 173.774 158.395 177.178 155.816 179.631C153.299 182.023 149.493 183.219 144.397 183.219C134.206 183.219 129.111 178.619 129.111 169.419ZM158.395 298.864H130.308V196.007H158.395V298.864Z" fill="#EA5148"/>
<path d="M256.012 268.32C256.012 278.869 252.328 286.904 244.961 292.424C237.655 297.944 226.697 300.704 212.086 300.704C204.596 300.704 198.211 300.183 192.931 299.14C187.652 298.159 182.71 296.687 178.105 294.724V271.54C183.324 273.993 189.187 276.048 195.694 277.704C202.263 279.36 208.034 280.188 213.007 280.188C223.198 280.188 228.293 277.244 228.293 271.356C228.293 269.148 227.618 267.369 226.267 266.02C224.917 264.609 222.584 263.045 219.269 261.328C215.953 259.549 211.533 257.494 206.008 255.164C198.088 251.852 192.256 248.785 188.511 245.964C184.828 243.142 182.126 239.922 180.408 236.304C178.75 232.624 177.921 228.115 177.921 222.779C177.921 213.641 181.451 206.587 188.511 201.619C195.633 196.59 205.701 194.075 218.716 194.075C231.117 194.075 243.181 196.774 254.907 202.171L246.435 222.411C241.278 220.203 236.458 218.394 231.977 216.983C227.495 215.573 222.921 214.867 218.256 214.867C209.968 214.867 205.824 217.106 205.824 221.583C205.824 224.098 207.144 226.275 209.784 228.115C212.485 229.955 218.348 232.685 227.372 236.304C235.415 239.554 241.308 242.59 245.053 245.412C248.798 248.233 251.561 251.484 253.341 255.164C255.121 258.844 256.012 263.229 256.012 268.32Z" fill="#EA5148"/>
<path d="M317.53 278.348C322.441 278.348 328.335 277.275 335.211 275.128V296.012C328.212 299.14 319.617 300.704 309.426 300.704C298.192 300.704 289.996 297.883 284.839 292.24C279.743 286.536 277.196 278.011 277.196 266.664V217.075H263.751V205.207L279.221 195.823L287.325 174.111H305.282V196.007H334.106V217.075H305.282V266.664C305.282 270.651 306.387 273.595 308.598 275.496C310.869 277.397 313.847 278.348 317.53 278.348Z" fill="#EA5148"/>
<path d="M417.725 298.864L412.292 284.88H411.555C406.828 290.829 401.948 294.969 396.913 297.3C391.941 299.569 385.433 300.704 377.391 300.704C367.507 300.704 359.71 297.883 354.001 292.24C348.352 286.597 345.528 278.563 345.528 268.136C345.528 257.218 349.335 249.184 356.947 244.032C364.621 238.818 376.163 235.936 391.572 235.384L409.437 234.832V230.323C409.437 219.897 404.096 214.683 393.414 214.683C385.188 214.683 375.518 217.167 364.406 222.135L355.106 203.183C366.954 196.989 380.092 193.891 394.519 193.891C408.332 193.891 418.922 196.897 426.29 202.907C433.657 208.918 437.34 218.057 437.34 230.323V298.864H417.725ZM409.437 251.208L398.571 251.576C390.406 251.821 384.328 253.293 380.338 255.992C376.347 258.69 374.352 262.8 374.352 268.32C374.352 276.232 378.895 280.188 387.981 280.188C394.489 280.188 399.676 278.317 403.544 274.576C407.473 270.835 409.437 265.866 409.437 259.672V251.208Z" fill="#EA5148"/>
<path d="M557.61 298.864H529.524V238.788C529.524 231.366 528.204 225.815 525.564 222.135C522.924 218.394 518.719 216.523 512.948 216.523C505.09 216.523 499.411 219.161 495.912 224.435C492.412 229.649 490.663 238.328 490.663 250.472V298.864H462.576V196.007H484.032L487.808 209.163H489.373C492.504 204.195 496.802 200.454 502.266 197.939C507.791 195.363 514.053 194.075 521.052 194.075C533.023 194.075 542.109 197.326 548.31 203.827C554.51 210.267 557.61 219.59 557.61 231.796V298.864Z" fill="#EA5148"/>
<path d="M624.562 300.704C592.516 300.704 576.492 283.132 576.492 247.988C576.492 230.507 580.851 217.167 589.569 207.967C598.286 198.706 610.78 194.075 627.048 194.075C638.958 194.075 649.641 196.406 659.095 201.067L650.807 222.779C646.387 221.001 642.274 219.559 638.467 218.455C634.661 217.29 630.855 216.707 627.048 216.707C612.437 216.707 605.132 227.073 605.132 247.804C605.132 267.921 612.437 277.98 627.048 277.98C632.451 277.98 637.454 277.275 642.059 275.864C646.663 274.392 651.268 272.123 655.872 269.056V293.068C651.329 295.951 646.725 297.944 642.059 299.048C637.454 300.152 631.622 300.704 624.562 300.704Z" fill="#EA5148"/>
<path d="M718.68 214.039C712.725 214.039 708.059 215.941 704.682 219.743C701.306 223.485 699.372 228.821 698.881 235.752H738.294C738.172 228.821 736.36 223.485 732.861 219.743C729.362 215.941 724.635 214.039 718.68 214.039ZM722.639 300.704C706.064 300.704 693.11 296.135 683.778 286.996C674.447 277.857 669.781 264.916 669.781 248.172C669.781 230.937 674.078 217.627 682.673 208.243C691.33 198.798 703.27 194.075 718.495 194.075C733.045 194.075 744.372 198.215 752.476 206.495C760.58 214.775 764.631 226.214 764.631 240.812V254.428H698.236C698.543 262.401 700.907 268.626 705.327 273.104C709.747 277.581 715.948 279.82 723.929 279.82C730.129 279.82 735.992 279.176 741.517 277.888C747.043 276.6 752.814 274.545 758.83 271.724V293.436C753.919 295.889 748.67 297.699 743.083 298.864C737.496 300.091 730.682 300.704 722.639 300.704Z" fill="#EA5148"/>
<path d="M809.153 235.974L808.111 240.661H791.722L783.904 277.399C783.055 281.218 782.63 284.381 782.63 286.888C782.63 292.249 785.062 294.93 789.927 294.93C792.552 294.93 795.486 294.428 798.729 293.426V298.401C794.83 299.481 791.549 300.021 788.885 300.021C785.062 300.021 782.109 298.98 780.024 296.897C777.939 294.776 776.897 291.709 776.897 287.698C776.897 284.882 777.457 280.909 778.576 275.779L786.047 240.661H775.507L776.318 236.784L786.974 235.801L792.591 221.163H795.776L792.591 235.974H809.153Z" fill="#EA5148"/>
<path d="M842.221 234.759C849.17 234.759 854.536 236.862 858.32 241.066C862.142 245.231 864.053 250.998 864.053 258.365C864.053 265.963 862.663 273.079 859.883 279.714C857.142 286.309 853.378 291.343 848.591 294.814C843.803 298.286 838.283 300.021 832.028 300.021C824.924 300.021 819.52 297.919 815.813 293.715C812.146 289.472 810.312 283.416 810.312 275.548C810.312 268.181 811.721 261.277 814.539 254.836C817.357 248.394 821.16 243.438 825.948 239.967C830.735 236.495 836.159 234.759 842.221 234.759ZM841.757 239.735C836.97 239.735 832.665 241.259 828.843 244.306C825.021 247.314 821.971 251.653 819.693 257.323C817.415 262.955 816.276 268.933 816.276 275.259C816.276 288.45 821.72 295.046 832.607 295.046C837.51 295.046 841.854 293.561 845.637 290.591C849.459 287.582 852.49 283.185 854.729 277.399C857.007 271.575 858.146 265.192 858.146 258.249C858.146 252.309 856.737 247.739 853.919 244.537C851.1 241.336 847.047 239.735 841.757 239.735Z" fill="#EA5148"/>
<path d="M0 357.578H32.977L53.8097 419.622C55.5869 425.015 56.8046 431.393 57.4628 438.758H58.0552C58.7793 431.985 60.1945 425.606 62.3008 419.622L82.7386 357.578H115.024L68.3235 481.963C64.0451 493.471 57.9236 502.085 49.9591 507.806C42.0604 513.528 32.8124 516.388 22.215 516.388C17.0151 516.388 11.9138 515.829 6.91134 514.711V490.84C10.5316 491.695 14.4809 492.123 18.7593 492.123C24.0909 492.123 28.7314 490.479 32.6808 487.191C36.6959 483.968 39.8225 479.069 42.0604 472.493L43.8376 467.068L0 357.578Z" fill="#EA5148"/>
<path d="M144.802 412.52C144.802 423.436 146.58 431.689 150.134 437.279C153.754 442.868 159.612 445.663 167.709 445.663C175.739 445.663 181.498 442.901 184.987 437.377C188.541 431.788 190.318 423.502 190.318 412.52C190.318 401.604 188.541 393.417 184.987 387.959C181.432 382.501 175.607 379.772 167.511 379.772C159.481 379.772 153.688 382.501 150.134 387.959C146.58 393.351 144.802 401.538 144.802 412.52ZM221.123 412.52C221.123 430.473 216.384 444.512 206.906 454.639C197.427 464.766 184.23 469.83 167.314 469.83C156.716 469.83 147.369 467.528 139.273 462.925C131.177 458.256 124.957 451.582 120.613 442.901C116.268 434.221 114.096 424.094 114.096 412.52C114.096 394.502 118.803 380.495 128.215 370.499C137.628 360.504 150.858 355.506 167.906 355.506C178.503 355.506 187.85 357.808 195.946 362.411C204.042 367.014 210.263 373.623 214.607 382.238C218.951 390.852 221.123 400.946 221.123 412.52Z" fill="#EA5148"/>
<path d="M314.091 467.857L310.043 453.752H308.463C305.238 458.881 300.663 462.859 294.739 465.687C288.815 468.449 282.068 469.83 274.499 469.83C261.532 469.83 251.757 466.378 245.175 459.473C238.593 452.502 235.301 442.507 235.301 429.486V357.578H265.415V421.99C265.415 429.947 266.83 435.931 269.661 439.942C272.491 443.888 277 445.86 283.187 445.86C291.612 445.86 297.701 443.066 301.453 437.476C305.205 431.821 307.081 422.483 307.081 409.462V357.578H337.194V467.857H314.091Z" fill="#EA5148"/>
<path d="M420.288 355.506C424.369 355.506 427.759 355.802 430.458 356.394L428.187 384.605C425.752 383.947 422.79 383.619 419.301 383.619C409.691 383.619 402.187 386.085 396.79 391.017C391.458 395.949 388.792 402.853 388.792 411.731V467.857H358.679V357.578H381.486L385.929 376.122H387.41C390.833 369.941 395.44 364.976 401.233 361.227C407.091 357.413 413.443 355.506 420.288 355.506Z" fill="#EA5148"/>
<path d="M574.589 467.857H544.475V403.445C544.475 395.488 543.06 389.537 540.23 385.591C537.399 381.58 532.89 379.574 526.703 379.574C518.278 379.574 512.189 382.402 508.437 388.057C504.686 393.647 502.81 402.952 502.81 415.973V467.857H472.696V357.578H495.701L499.749 371.683H501.427C504.784 366.357 509.392 362.345 515.25 359.649C521.174 356.887 527.888 355.506 535.392 355.506C548.227 355.506 557.969 358.991 564.617 365.962C571.265 372.867 574.589 382.862 574.589 395.949V467.857Z" fill="#EA5148"/>
<path d="M635.128 376.911C628.743 376.911 623.741 378.95 620.121 383.027C616.501 387.038 614.427 392.759 613.901 400.19H656.158C656.027 392.759 654.085 387.038 650.333 383.027C646.581 378.95 641.513 376.911 635.128 376.911ZM639.374 469.83C621.602 469.83 607.713 464.931 597.708 455.133C587.703 445.334 582.701 431.459 582.701 413.507C582.701 395.028 587.308 380.758 596.523 370.697C605.804 360.57 618.607 355.506 634.931 355.506C650.531 355.506 662.675 359.945 671.363 368.823C680.052 377.7 684.396 389.964 684.396 405.615V420.214H613.209C613.539 428.763 616.073 435.438 620.812 440.238C625.551 445.038 632.199 447.439 640.756 447.439C647.404 447.439 653.69 446.748 659.614 445.367C665.538 443.986 671.725 441.783 678.176 438.758V462.037C672.91 464.668 667.282 466.608 661.293 467.857C655.303 469.172 647.997 469.83 639.374 469.83Z" fill="#EA5148"/>
<path d="M720.371 411.534L684.827 357.578H718.988L740.414 392.693L762.036 357.578H796.198L760.259 411.534L797.876 467.857H763.616L740.414 430.078L717.112 467.857H682.951L720.371 411.534Z" fill="#EA5148"/>
<path d="M850.043 445.86C855.309 445.86 861.628 444.71 869 442.408V464.799C861.496 468.153 852.281 469.83 841.355 469.83C829.309 469.83 820.522 466.805 814.993 460.755C809.53 454.639 806.798 445.499 806.798 433.333V380.166H792.383V367.442L808.97 357.38L817.659 334.101H836.912V357.578H867.815V380.166H836.912V433.333C836.912 437.608 838.096 440.764 840.466 442.803C842.901 444.841 846.094 445.86 850.043 445.86Z" fill="#EA5148"/>
<path d="M77.2095 571.118C90.2423 571.118 100.445 576.215 107.817 586.407C115.189 596.534 118.875 610.443 118.875 628.132C118.875 646.348 115.057 660.453 107.422 670.449C99.8524 680.444 89.5183 685.442 76.4196 685.442C63.4527 685.442 53.2831 680.74 45.911 671.336H43.8376L38.8022 683.469H15.7973V529.985H45.911V565.693C45.911 570.23 45.5161 577.497 44.7262 587.492H45.911C52.954 576.576 63.3868 571.118 77.2095 571.118ZM67.5336 595.186C60.0957 595.186 54.6654 597.488 51.2426 602.091C47.8199 606.629 46.0427 614.158 45.911 624.68V627.935C45.911 639.772 47.6553 648.255 51.1439 653.384C54.6983 658.513 60.2932 661.078 67.9286 661.078C74.1159 661.078 79.0196 658.25 82.6399 652.595C86.3259 646.874 88.1689 638.588 88.1689 627.737C88.1689 616.887 86.3259 608.766 82.6399 603.373C78.9538 597.915 73.9184 595.186 67.5336 595.186Z" fill="#EA5148"/>
<path d="M142.472 544.683C142.472 534.884 147.936 529.985 158.862 529.985C169.789 529.985 175.252 534.884 175.252 544.683C175.252 549.352 173.87 553.001 171.105 555.632C168.406 558.196 164.325 559.479 158.862 559.479C147.936 559.479 142.472 554.547 142.472 544.683ZM173.87 683.469H143.756V573.19H173.87V683.469Z" fill="#EA5148"/>
<path d="M301.631 573.19V588.479L284.352 592.918C287.512 597.85 289.091 603.373 289.091 609.489C289.091 621.326 284.945 630.565 276.651 637.207C268.423 643.783 256.97 647.071 242.292 647.071L236.861 646.775L232.418 646.282C229.325 648.649 227.778 651.28 227.778 654.173C227.778 658.513 233.307 660.683 244.365 660.683H263.124C275.236 660.683 284.451 663.281 290.77 668.476C297.155 673.671 300.347 681.299 300.347 691.36C300.347 704.249 294.95 714.245 284.155 721.347C273.426 728.449 257.99 732 237.849 732C222.446 732 210.664 729.304 202.502 723.911C194.406 718.585 190.358 711.088 190.358 701.422C190.358 694.78 192.431 689.223 196.578 684.751C200.725 680.28 206.814 677.09 214.844 675.183C211.75 673.868 209.052 671.731 206.748 668.772C204.444 665.747 203.292 662.557 203.292 659.204C203.292 654.995 204.51 651.51 206.945 648.748C209.381 645.92 212.902 643.158 217.51 640.462C211.717 637.963 207.11 633.952 203.687 628.428C200.33 622.904 198.652 616.394 198.652 608.897C198.652 596.863 202.568 587.558 210.401 580.982C218.234 574.406 229.423 571.118 243.97 571.118C247.064 571.118 250.717 571.414 254.93 572.006C259.208 572.532 261.94 572.927 263.124 573.19H301.631ZM216.424 699.054C216.424 703.197 218.398 706.452 222.348 708.82C226.363 711.187 231.958 712.371 239.132 712.371C249.927 712.371 258.385 710.891 264.507 707.932C270.628 704.973 273.689 700.928 273.689 695.799C273.689 691.656 271.879 688.796 268.259 687.217C264.638 685.639 259.044 684.85 251.474 684.85H235.874C230.345 684.85 225.705 686.132 221.953 688.697C218.267 691.327 216.424 694.78 216.424 699.054ZM227.383 609.292C227.383 615.276 228.732 620.011 231.431 623.496C234.196 626.981 238.375 628.724 243.97 628.724C249.631 628.724 253.778 626.981 256.411 623.496C259.044 620.011 260.36 615.276 260.36 609.292C260.36 596.008 254.897 589.367 243.97 589.367C232.912 589.367 227.383 596.008 227.383 609.292Z" fill="#EA5148"/>
<path d="M403.76 661.472C409.026 661.472 415.345 660.322 422.717 658.02V680.411C415.213 683.765 405.998 685.442 395.072 685.442C383.026 685.442 374.239 682.417 368.71 676.367C363.247 670.251 360.515 661.111 360.515 648.945V595.778H346.1V583.054L362.687 572.992L371.376 549.713H390.629V573.19H421.532V595.778H390.629V648.945C390.629 653.219 391.814 656.376 394.183 658.415C396.619 660.453 399.811 661.472 403.76 661.472Z" fill="#EA5148"/>
<path d="M547.023 683.469H516.909V619.057C516.909 603.143 510.985 595.186 499.137 595.186C490.712 595.186 484.623 598.047 480.871 603.768C477.119 609.489 475.243 618.761 475.243 631.584V683.469H445.13V529.985H475.243V561.254C475.243 563.687 475.013 569.408 474.552 578.417L473.861 587.295H475.441C482.155 576.51 492.818 571.118 507.43 571.118C520.397 571.118 530.238 574.603 536.952 581.574C543.666 588.544 547.023 598.54 547.023 611.561V683.469Z" fill="#EA5148"/>
<path d="M576.741 544.683C576.741 534.884 582.205 529.985 593.131 529.985C604.057 529.985 609.521 534.884 609.521 544.683C609.521 549.352 608.138 553.001 605.374 555.632C602.675 558.196 598.594 559.479 593.131 559.479C582.205 559.479 576.741 554.547 576.741 544.683ZM608.138 683.469H578.025V573.19H608.138V683.469Z" fill="#EA5148"/>
<path d="M741.725 683.469H711.611V619.057C711.611 611.1 710.196 605.149 707.366 601.203C704.535 597.192 700.026 595.186 693.839 595.186C685.414 595.186 679.325 598.014 675.573 603.669C671.822 609.259 669.946 618.564 669.946 631.584V683.469H639.832V573.19H662.837L666.885 587.295H668.563C671.92 581.969 676.528 577.957 682.386 575.261C688.31 572.499 695.024 571.118 702.528 571.118C715.363 571.118 725.105 574.603 731.753 581.574C738.401 588.479 741.725 598.474 741.725 611.561V683.469Z" fill="#EA5148"/>
<path d="M868.795 573.19V588.479L851.516 592.918C854.676 597.85 856.255 603.373 856.255 609.489C856.255 621.326 852.109 630.565 843.815 637.207C835.587 643.783 824.134 647.071 809.456 647.071L804.026 646.775L799.583 646.282C796.489 648.649 794.942 651.28 794.942 654.173C794.942 658.513 800.471 660.683 811.529 660.683H830.289C842.4 660.683 851.615 663.281 857.934 668.476C864.319 673.671 867.511 681.299 867.511 691.36C867.511 704.249 862.114 714.245 851.319 721.347C840.59 728.449 825.154 732 805.013 732C789.61 732 777.828 729.304 769.666 723.911C761.57 718.585 757.522 711.088 757.522 701.422C757.522 694.78 759.596 689.223 763.742 684.751C767.889 680.28 773.978 677.09 782.008 675.183C778.914 673.868 776.216 671.731 773.912 668.772C771.608 665.747 770.456 662.557 770.456 659.204C770.456 654.995 771.674 651.51 774.109 648.748C776.545 645.92 780.066 643.158 784.674 640.462C778.881 637.963 774.274 633.952 770.851 628.428C767.494 622.904 765.816 616.394 765.816 608.897C765.816 596.863 769.732 587.558 777.565 580.982C785.398 574.406 796.588 571.118 811.134 571.118C814.228 571.118 817.881 571.414 822.094 572.006C826.372 572.532 829.104 572.927 830.289 573.19H868.795ZM783.588 699.054C783.588 703.197 785.562 706.452 789.512 708.82C793.527 711.187 799.122 712.371 806.296 712.371C817.091 712.371 825.549 710.891 831.671 707.932C837.792 704.973 840.853 700.928 840.853 695.799C840.853 691.656 839.043 688.796 835.423 687.217C831.803 685.639 826.208 684.85 818.638 684.85H803.038C797.509 684.85 792.869 686.132 789.117 688.697C785.431 691.327 783.588 694.78 783.588 699.054ZM794.547 609.292C794.547 615.276 795.896 620.011 798.595 623.496C801.36 626.981 805.539 628.724 811.134 628.724C816.795 628.724 820.942 626.981 823.575 623.496C826.208 620.011 827.524 615.276 827.524 609.292C827.524 596.008 822.061 589.367 811.134 589.367C800.076 589.367 794.547 596.008 794.547 609.292Z" fill="#EA5148"/>
</svg>
