<svg width="310" height="377" viewBox="0 0 310 377" fill="none" xmlns="http://www.w3.org/2000/svg">
<path d="M52.8852 188.305C52.8852 209.84 53.2745 228.391 54.0531 243.959C55.0912 259.526 57.1676 273.277 60.282 285.212C63.6561 296.888 68.4576 307.525 74.6865 317.125C81.175 326.725 89.9994 336.455 101.16 346.314L75.4652 372C60.4118 361.881 48.2134 351.114 38.87 339.698C29.7861 328.541 22.6487 315.828 17.4579 301.558C12.5267 287.028 9.15266 270.683 7.33587 252.521C5.77863 234.099 5 212.694 5 188.305C5 164.176 5.77863 142.901 7.33587 124.479C9.15266 106.058 12.5267 89.7123 17.4579 75.4422C22.6487 61.1721 29.7861 48.4588 38.87 37.3022C48.2134 25.8862 60.4118 15.1188 75.4652 5L101.16 30.2969C89.9994 40.4157 81.175 50.275 74.6865 59.8749C68.198 69.4747 63.2668 80.2421 59.8928 92.1771C56.7783 104.112 54.8317 117.733 54.0531 133.041C53.2745 148.349 52.8852 166.771 52.8852 188.305Z" fill="white"/>
<path d="M127.757 303.504V102.296H182.261V303.504H127.757ZM123.086 43.9183C123.086 34.8374 126.07 27.1835 132.04 20.9565C138.269 14.4701 145.925 11.2269 155.009 11.2269C164.093 11.2269 171.62 14.4701 177.589 20.9565C183.818 27.1835 186.933 34.8374 186.933 43.9183C186.933 52.9993 183.818 60.6532 177.589 66.8802C171.62 72.8476 164.093 75.8314 155.009 75.8314C145.925 75.8314 138.269 72.8476 132.04 66.8802C126.07 60.6532 123.086 52.9993 123.086 43.9183Z" fill="white"/>
<path d="M257.115 188.305C257.115 166.771 256.726 148.349 255.947 133.041C255.168 117.733 253.092 104.112 249.718 92.1771C246.603 80.2421 241.802 69.4747 235.313 59.8749C228.825 50.275 220.001 40.4157 208.84 30.2969L234.535 5C249.588 15.1188 261.657 25.8862 270.741 37.3022C280.084 48.4588 287.221 61.1721 292.153 75.4422C297.344 89.7123 300.718 106.058 302.275 124.479C304.092 142.901 305 164.176 305 188.305C305 212.694 304.092 234.099 302.275 252.521C300.718 270.683 297.344 287.028 292.153 301.558C287.221 315.828 280.084 328.541 270.741 339.698C261.657 351.114 249.588 361.881 234.535 372L208.84 346.314C220.001 336.455 228.695 326.725 234.924 317.125C241.413 307.525 246.214 296.888 249.329 285.212C252.703 273.277 254.779 259.526 255.558 243.959C256.596 228.391 257.115 209.84 257.115 188.305Z" fill="white"/>
<path d="M102.815 344.44C91.7781 334.69 83.1123 325.122 76.7711 315.745C70.6956 306.377 66.0001 295.983 62.6928 284.549C59.6328 272.813 57.5788 259.24 56.5489 243.813C55.7737 228.304 55.3852 209.803 55.3852 188.305C55.3852 166.797 55.7741 148.421 56.5499 133.168C57.3213 118.002 59.2465 104.563 62.3053 92.8329C65.6118 81.1459 70.4329 70.6326 76.7578 61.2748C83.1066 51.8817 91.7853 42.1711 102.839 32.149C103.348 31.6871 103.645 31.0358 103.659 30.3483C103.673 29.6608 103.404 28.9979 102.914 28.5154L77.2191 3.21851C76.3725 2.38506 75.0564 2.26245 74.0705 2.92518C58.8588 13.1504 46.4645 24.0758 36.9354 35.7188L36.9313 35.7237C27.6615 47.1088 20.3895 60.0697 15.1086 74.5876C15.104 74.6003 15.0995 74.6129 15.0951 74.6257C10.0875 89.1166 6.67978 105.66 4.84795 124.234L4.84476 124.269C3.28013 142.777 2.5 164.126 2.5 188.305C2.5 212.744 3.28008 234.222 4.84476 252.731L4.84829 252.77C6.68052 271.086 10.0881 287.622 15.0906 302.361C15.0964 302.378 15.1024 302.395 15.1086 302.412C20.3895 316.93 27.6615 329.891 36.9313 341.276L36.9354 341.281C46.4645 352.924 58.8588 363.85 74.0705 374.075C75.0624 374.742 76.3874 374.613 77.2326 373.768L102.927 348.082C103.415 347.594 103.68 346.926 103.658 346.237C103.637 345.547 103.332 344.897 102.815 344.44ZM125.257 303.504C125.257 304.884 126.377 306.004 127.757 306.004H182.261C183.642 306.004 184.761 304.884 184.761 303.504V102.296C184.761 100.915 183.642 99.7959 182.261 99.7959H127.757C126.377 99.7959 125.257 100.915 125.257 102.296V303.504ZM130.237 19.2249L130.235 19.2265C123.794 25.9453 120.586 34.2302 120.586 43.9183C120.586 53.6065 123.794 61.8914 130.235 68.6102C130.26 68.6358 130.285 68.6609 130.31 68.6854C137.031 75.1242 145.318 78.3314 155.009 78.3314C164.7 78.3314 172.88 75.1224 179.357 68.6482C186.071 61.9364 189.433 53.6395 189.433 43.9183C189.433 34.215 186.083 25.9307 179.393 19.2254C172.94 12.2325 164.75 8.72692 155.009 8.72692C145.252 8.72692 136.942 12.242 130.237 19.2249ZM247.299 92.8083C247.303 92.8247 247.308 92.8409 247.312 92.8572C250.625 104.575 252.679 118.006 253.45 133.168C254.226 148.421 254.615 166.797 254.615 188.305C254.615 209.804 254.096 228.297 253.063 243.792C253.062 243.806 253.061 243.82 253.061 243.834C252.289 259.259 250.235 272.817 246.923 284.532L246.913 284.568C243.867 295.986 239.179 306.366 232.853 315.725C232.844 315.738 232.835 315.751 232.827 315.764C226.752 325.127 218.224 334.689 207.185 344.44C206.668 344.897 206.363 345.547 206.342 346.237C206.32 346.926 206.585 347.594 207.073 348.082L232.767 373.768C233.613 374.613 234.938 374.742 235.93 374.075C251.136 363.853 263.403 352.928 272.678 341.278C282.211 329.889 289.488 316.919 294.511 302.388C299.782 287.63 303.192 271.077 304.764 252.748C306.59 234.228 307.5 212.744 307.5 188.305C307.5 164.125 306.59 142.771 304.765 124.253C303.193 105.672 299.784 89.1143 294.509 74.6061C289.486 60.0775 282.21 47.1095 272.678 35.7217C263.403 24.0723 251.136 13.1466 235.93 2.92518C234.944 2.26245 233.627 2.38506 232.781 3.21851L207.086 28.5154C206.596 28.9979 206.327 29.6608 206.341 30.3483C206.355 31.0358 206.652 31.6871 207.161 32.149C218.215 42.1711 226.893 51.8817 233.242 61.2748C239.562 70.6252 244.251 81.1297 247.299 92.8083Z" fill="#EA5148" stroke="white" stroke-width="5" stroke-linejoin="round"/>
</svg>
