<svg width="484" height="74" viewBox="0 0 484 74" fill="none" xmlns="http://www.w3.org/2000/svg">
<path d="M8.2304 42.1115C8.2304 45.8141 8.29732 49.0036 8.43114 51.6802C8.60958 54.3567 8.96646 56.721 9.50177 58.7731C10.0817 60.7805 10.907 62.6094 11.9776 64.26C13.0928 65.9105 14.6095 67.5834 16.5277 69.2785L12.1114 73.6948C9.52407 71.9551 7.42744 70.1038 5.82151 68.141C4.26018 66.2228 3.03343 64.0369 2.14125 61.5834C1.29367 59.0853 0.71375 56.2749 0.401485 53.1523C0.13383 49.985 0 46.3048 0 42.1115C0 37.9628 0.13383 34.3049 0.401485 31.1376C0.71375 27.9704 1.29367 25.16 2.14125 22.7065C3.03343 20.253 4.26018 18.0671 5.82151 16.1489C7.42744 14.1861 9.52407 12.3348 12.1114 10.5951L16.5277 14.9445C14.6095 16.6842 13.0928 18.3794 11.9776 20.0299C10.8624 21.6805 10.0148 23.5318 9.43486 25.5838C8.89954 27.6358 8.56497 29.9778 8.43114 32.6097C8.29732 35.2417 8.2304 38.4089 8.2304 42.1115Z" fill="white"/>
<path d="M21.0993 61.918V27.3235H30.4672V61.918H21.0993ZM20.2963 17.2865C20.2963 15.7251 20.8093 14.4092 21.8353 13.3386C22.906 12.2233 24.2219 11.6657 25.7833 11.6657C27.3446 11.6657 28.6383 12.2233 29.6643 13.3386C30.7349 14.4092 31.2702 15.7251 31.2702 17.2865C31.2702 18.8478 30.7349 20.1638 29.6643 21.2344C28.6383 22.2604 27.3446 22.7734 25.7833 22.7734C24.2219 22.7734 22.906 22.2604 21.8353 21.2344C20.8093 20.1638 20.2963 18.8478 20.2963 17.2865Z" fill="white"/>
<path d="M43.333 42.1115C43.333 38.4089 43.2661 35.2417 43.1322 32.6097C42.9984 29.9778 42.6415 27.6358 42.0616 25.5838C41.5263 23.5318 40.701 21.6805 39.5858 20.0299C38.4706 18.3794 36.9539 16.6842 35.0357 14.9445L39.452 10.5951C42.0393 12.3348 44.1136 14.1861 45.675 16.1489C47.2809 18.0671 48.5077 20.253 49.3552 22.7065C50.2474 25.16 50.8273 27.9704 51.095 31.1376C51.4073 34.3049 51.5634 37.9628 51.5634 42.1115C51.5634 46.3048 51.4073 49.985 51.095 53.1523C50.8273 56.2749 50.2474 59.0853 49.3552 61.5834C48.5077 64.0369 47.2809 66.2228 45.675 68.141C44.1136 70.1038 42.0393 71.9551 39.452 73.6948L35.0357 69.2785C36.9539 67.5834 38.4483 65.9105 39.5189 64.26C40.6341 62.6094 41.4594 60.7805 41.9947 58.7731C42.5746 56.721 42.9315 54.3567 43.0653 51.6802C43.2438 49.0036 43.333 45.8141 43.333 42.1115Z" fill="white"/>
<path d="M67.2804 19.2927C68.5996 20.7767 69.479 22.2608 69.9188 23.7449C70.3585 25.1739 70.5783 26.713 70.5783 28.3619V61.918H59.0357V29.6811C59.0357 26.4931 58.596 23.0303 57.7165 19.2927H67.2804ZM85.6662 31.6598C85.6662 30.2857 85.3914 29.1589 84.8417 28.2795C84.2921 27.4 83.3027 26.9603 81.8736 26.9603C81.324 26.9603 80.8018 27.0427 80.3071 27.2076C79.8124 27.3176 79.1804 27.4 78.4108 27.455C77.7513 27.51 77.1467 27.3725 76.597 27.0428C76.0474 26.713 75.5252 26.3007 75.0305 25.806C74.5908 25.2564 74.1511 24.6518 73.7113 23.9922C73.3266 23.3326 72.9418 22.673 72.5571 22.0135C75.3053 20.5844 77.6963 19.595 79.73 19.0454C81.7637 18.4957 83.7424 18.2209 85.6662 18.2209C87.0953 18.2209 88.4969 18.4957 89.871 19.0454C91.2452 19.595 92.4544 20.4195 93.4987 21.5188C94.598 22.6181 95.4775 23.9922 96.137 25.6411C96.7966 27.2901 97.1264 29.2413 97.1264 31.4949V61.918H85.6662V31.6598Z" fill="white"/>
<path d="M126.735 18.2209C128.219 18.2209 129.841 18.3858 131.6 18.7156C133.359 18.9904 135.063 19.4301 136.711 20.0347L133.908 27.7023C132.589 27.3725 131.297 27.1252 130.033 26.9603C128.769 26.7954 127.67 26.713 126.735 26.713C123.767 26.713 121.376 27.9497 119.562 30.4231C117.749 32.8965 116.842 36.2769 116.842 40.5641C116.842 44.9064 117.749 48.3142 119.562 50.7876C121.376 53.261 123.767 54.4977 126.735 54.4977C127.89 54.4977 129.126 54.3603 130.445 54.0855C131.765 53.7557 133.304 53.2335 135.063 52.519L137.866 60.1042C135.722 61.0935 133.688 61.8081 131.765 62.2478C129.896 62.7425 128.219 62.9898 126.735 62.9898C123.877 62.9898 121.101 62.5776 118.408 61.7531C115.77 60.8737 113.434 59.527 111.4 57.7132C109.366 55.8993 107.717 53.5908 106.453 50.7876C105.244 47.9294 104.639 44.5216 104.639 40.5641C104.639 36.8265 105.244 33.5561 106.453 30.7529C107.717 27.9497 109.366 25.6411 111.4 23.8273C113.434 21.9585 115.77 20.5569 118.408 19.6225C121.101 18.6881 123.877 18.2209 126.735 18.2209Z" fill="white"/>
<path d="M150.619 19.2927C151.059 19.6774 151.526 20.447 152.021 21.6012C152.571 22.7005 152.955 23.9647 153.175 25.3938L153.34 27.3725L154.165 25.3938C155.264 23.1952 156.693 21.4913 158.452 20.2821C160.266 19.0728 162.052 18.4682 163.811 18.4682C165.405 18.4682 167.191 18.798 169.17 19.4576L167.851 28.7741C166.752 28.4444 165.817 28.2245 165.048 28.1146C164.333 28.0046 163.646 27.9497 162.986 27.9497C161.557 27.9497 160.293 28.3069 159.194 29.0215C158.095 29.736 157.16 30.7254 156.391 31.9896C155.621 33.1988 155.017 34.6829 154.577 36.4418C154.192 38.1457 154 40.0145 154 42.0482V61.918H143.199V29.6811C143.199 28.142 143.089 26.5206 142.869 24.8167C142.704 23.0578 142.375 21.2165 141.88 19.2927H150.619Z" fill="white"/>
<path d="M201.953 35.7822C202.118 34.518 202.063 33.3088 201.788 32.1545C201.513 31.0002 201.046 29.9834 200.387 29.1039C199.782 28.2245 198.985 27.5374 197.996 27.0428C197.061 26.4931 195.962 26.2183 194.698 26.2183C193.543 26.2183 192.389 26.4656 191.235 26.9603C190.136 27.455 189.119 28.252 188.184 29.3513C187.25 30.3956 186.48 31.7697 185.876 33.4736C185.326 35.1226 185.051 37.1288 185.051 39.4923C185.051 44.2743 186.123 47.9844 188.267 50.6227C190.41 53.2061 193.214 54.4977 196.676 54.4977C198.6 54.4977 200.469 54.2779 202.283 53.8382C204.152 53.3435 206.295 52.5465 208.714 51.4472L211.599 59.1148C208.631 60.5439 205.828 61.5332 203.19 62.0829C200.606 62.6875 198.023 62.9898 195.44 62.9898C191.647 62.9898 188.377 62.3028 185.629 60.9286C182.935 59.5545 180.682 57.7956 178.868 55.652C177.109 53.4534 175.79 50.98 174.91 48.2317C174.086 45.4835 173.674 42.7078 173.674 39.9045C173.674 36.4967 174.223 33.4462 175.323 30.7529C176.477 28.0596 178.016 25.806 179.94 23.9922C181.918 22.1234 184.227 20.6943 186.865 19.7049C189.504 18.7156 192.307 18.2209 195.275 18.2209C198.298 18.2209 201.074 18.8255 203.602 20.0347C206.13 21.2439 208.164 22.9204 209.703 25.064C211.242 27.2076 212.177 29.791 212.506 32.8141C212.891 35.7822 212.479 39.0251 211.27 42.5429H188.184C188.789 40.6191 189.641 39.0251 190.74 37.7609C191.895 36.4418 193.186 35.7822 194.615 35.7822H201.953Z" fill="white"/>
<path d="M231.012 19.2927C232.331 20.7767 233.183 22.2608 233.568 23.7449C234.008 25.1739 234.227 26.713 234.227 28.3619V61.918H222.685V29.6811C222.685 28.142 222.575 26.5206 222.355 24.8167C222.19 23.0578 221.888 21.2165 221.448 19.2927H231.012ZM248.986 31.6598C248.986 30.2857 248.738 29.1589 248.243 28.2795C247.749 27.4 246.787 26.9603 245.358 26.9603C244.863 26.9603 244.368 27.0153 243.874 27.1252C243.379 27.2351 242.802 27.3176 242.142 27.3725C241.483 27.4275 240.851 27.3176 240.246 27.0428C239.696 26.713 239.174 26.2732 238.68 25.7236C238.185 25.1739 237.718 24.5693 237.278 23.9097C236.838 23.1952 236.426 22.4532 236.041 21.6837C239.009 20.4744 241.483 19.595 243.462 19.0454C245.495 18.4957 247.474 18.2209 249.398 18.2209C250.827 18.2209 252.201 18.4957 253.52 19.0454C254.894 19.595 256.076 20.4195 257.065 21.5188C258.11 22.6181 258.934 23.9922 259.539 25.6411C260.198 27.2901 260.528 29.2413 260.528 31.4949V61.918H248.986V31.6598ZM275.286 31.6598C275.286 30.2857 274.984 29.1589 274.379 28.2795C273.775 27.4 272.703 26.9603 271.164 26.9603C270.669 26.9603 270.12 27.0427 269.515 27.2076C268.965 27.3176 268.333 27.4 267.619 27.455C266.959 27.51 266.327 27.4 265.722 27.1252C265.118 26.7954 264.541 26.3557 263.991 25.806C263.496 25.2564 263.029 24.6518 262.589 23.9922C262.15 23.2777 261.737 22.5356 261.353 21.7661C264.376 20.5019 266.932 19.595 269.02 19.0454C271.109 18.4957 273.115 18.2209 275.039 18.2209C276.468 18.2209 277.87 18.4957 279.244 19.0454C280.673 19.595 281.937 20.4195 283.036 21.5188C284.136 22.6181 285.015 23.9922 285.675 25.6411C286.389 27.2901 286.746 29.2413 286.746 31.4949V61.918H275.286V31.6598Z" fill="white"/>
<path d="M325.141 35.7822C325.306 34.518 325.251 33.3088 324.976 32.1545C324.701 31.0002 324.234 29.9834 323.575 29.1039C322.97 28.2245 322.173 27.5374 321.184 27.0428C320.249 26.4931 319.15 26.2183 317.886 26.2183C316.732 26.2183 315.577 26.4656 314.423 26.9603C313.324 27.455 312.307 28.252 311.372 29.3513C310.438 30.3956 309.669 31.7697 309.064 33.4736C308.514 35.1226 308.239 37.1288 308.239 39.4923C308.239 44.2743 309.311 47.9844 311.455 50.6227C313.598 53.2061 316.402 54.4977 319.865 54.4977C321.788 54.4977 323.657 54.2779 325.471 53.8382C327.34 53.3435 329.483 52.5465 331.902 51.4472L334.787 59.1148C331.819 60.5439 329.016 61.5332 326.378 62.0829C323.795 62.6875 321.211 62.9898 318.628 62.9898C314.835 62.9898 311.565 62.3028 308.817 60.9286C306.123 59.5545 303.87 57.7956 302.056 55.652C300.297 53.4534 298.978 50.98 298.098 48.2317C297.274 45.4835 296.862 42.7078 296.862 39.9045C296.862 36.4967 297.411 33.4462 298.511 30.7529C299.665 28.0596 301.204 25.806 303.128 23.9922C305.106 22.1234 307.415 20.6943 310.053 19.7049C312.692 18.7156 315.495 18.2209 318.463 18.2209C321.486 18.2209 324.262 18.8255 326.79 20.0347C329.318 21.2439 331.352 22.9204 332.891 25.064C334.43 27.2076 335.365 29.791 335.694 32.8141C336.079 35.7822 335.667 39.0251 334.458 42.5429H311.372C311.977 40.6191 312.829 39.0251 313.928 37.7609C315.083 36.4418 316.374 35.7822 317.803 35.7822H325.141Z" fill="white"/>
<path d="M352.304 19.2927C353.623 20.7767 354.502 22.2608 354.942 23.7449C355.382 25.1739 355.602 26.713 355.602 28.3619V61.918H344.059V29.6811C344.059 26.4931 343.619 23.0303 342.74 19.2927H352.304ZM370.689 31.6598C370.689 30.2857 370.415 29.1589 369.865 28.2795C369.315 27.4 368.326 26.9603 366.897 26.9603C366.347 26.9603 365.825 27.0427 365.33 27.2076C364.836 27.3176 364.204 27.4 363.434 27.455C362.775 27.51 362.17 27.3725 361.62 27.0428C361.071 26.713 360.548 26.3007 360.054 25.806C359.614 25.2564 359.174 24.6518 358.735 23.9922C358.35 23.3326 357.965 22.673 357.58 22.0135C360.329 20.5844 362.72 19.595 364.753 19.0454C366.787 18.4957 368.766 18.2209 370.689 18.2209C372.119 18.2209 373.52 18.4957 374.894 19.0454C376.268 19.595 377.478 20.4195 378.522 21.5188C379.621 22.6181 380.501 23.9922 381.16 25.6411C381.82 27.2901 382.15 29.2413 382.15 31.4949V61.918H370.689V31.6598Z" fill="white"/>
<path d="M395.929 27.455H389.086V20.9416L395.929 19.2927V9.15166L406.812 5.60642V45.5934C406.812 48.3966 407.389 50.5952 408.543 52.1892C409.752 53.7282 411.319 54.4977 413.243 54.4977C414.012 54.4977 414.892 54.4153 415.881 54.2504C416.925 54.0855 418.162 53.7557 419.591 53.261L421.982 60.7637C419.893 61.4783 418.052 62.0279 416.458 62.4127C414.919 62.7974 413.463 62.9898 412.088 62.9898C406.812 62.9898 402.799 61.5058 400.051 58.5377C397.303 55.5696 395.929 51.2548 395.929 45.5934V27.455ZM417.86 27.455C416.65 27.455 415.579 27.2076 414.644 26.713C413.765 26.1633 412.995 25.5037 412.336 24.7342C411.676 23.9647 411.126 23.1128 410.687 22.1784C410.247 21.189 409.89 20.2271 409.615 19.2927H421.57V27.455H417.86Z" fill="white"/>
<path d="M430.645 61.918V19.2927H442.188V61.918H430.645ZM429.656 6.92558C429.656 5.00181 430.288 3.38035 431.552 2.06119C432.872 0.687063 434.493 0 436.417 0C438.341 0 439.935 0.687063 441.199 2.06119C442.518 3.38035 443.177 5.00181 443.177 6.92558C443.177 8.84936 442.518 10.4708 441.199 11.79C439.935 13.0542 438.341 13.6863 436.417 13.6863C434.493 13.6863 432.872 13.0542 431.552 11.79C430.288 10.4708 429.656 8.84936 429.656 6.92558Z" fill="white"/>
<path d="M472.386 18.2209C473.87 18.2209 475.492 18.3858 477.251 18.7156C479.01 18.9904 480.714 19.4301 482.363 20.0347L479.559 27.7023C478.24 27.3725 476.948 27.1252 475.684 26.9603C474.42 26.7954 473.321 26.713 472.386 26.713C469.418 26.713 467.027 27.9497 465.213 30.4231C463.4 32.8965 462.493 36.2769 462.493 40.5641C462.493 44.9064 463.4 48.3142 465.213 50.7876C467.027 53.261 469.418 54.4977 472.386 54.4977C473.541 54.4977 474.777 54.3603 476.097 54.0855C477.416 53.7557 478.955 53.2335 480.714 52.519L483.517 60.1042C481.373 61.0935 479.339 61.8081 477.416 62.2478C475.547 62.7425 473.87 62.9898 472.386 62.9898C469.528 62.9898 466.752 62.5776 464.059 61.7531C461.421 60.8737 459.085 59.527 457.051 57.7132C455.017 55.8993 453.369 53.5908 452.104 50.7876C450.895 47.9294 450.29 44.5216 450.29 40.5641C450.29 36.8265 450.895 33.5561 452.104 30.7529C453.369 27.9497 455.017 25.6411 457.051 23.8273C459.085 21.9585 461.421 20.5569 464.059 19.6225C466.752 18.6881 469.528 18.2209 472.386 18.2209Z" fill="white"/>
</svg>
